<svg width="361" height="361" viewBox="0 0 361 361" fill="none" xmlns="http://www.w3.org/2000/svg">
<g filter="url(#filter0_d_29_135)">
<g clip-path="url(#clip0_29_135)">
<g filter="url(#filter1_i_29_135)">
<path d="M143.432 90.5209L250.114 152.113L226.501 193.011C210.425 220.856 174.819 230.397 146.973 214.32L141.13 210.947C131.691 205.497 124.355 197.803 119.408 188.928L119.343 188.998C111.979 176.249 107.406 158.144 112.083 141.796C116.856 125.111 125.94 116.431 129.979 113.823L143.432 90.5209Z" fill="url(#paint0_linear_29_135)"/>
</g>
<path d="M143.432 90.5209L250.114 152.113L226.501 193.011C210.425 220.856 174.819 230.397 146.973 214.32L141.13 210.947C131.691 205.497 124.355 197.803 119.408 188.928L119.343 188.998C111.979 176.249 107.406 158.144 112.083 141.796C116.856 125.111 125.94 116.431 129.979 113.823L143.432 90.5209Z" fill="url(#paint1_radial_29_135)"/>
<path d="M143.432 90.5209L250.114 152.113L226.501 193.011C210.425 220.856 174.819 230.397 146.973 214.32L141.13 210.947C131.691 205.497 124.355 197.803 119.408 188.928L119.343 188.998C111.979 176.249 107.406 158.144 112.083 141.796C116.856 125.111 125.94 116.431 129.979 113.823L143.432 90.5209Z" fill="url(#paint2_radial_29_135)"/>
<g filter="url(#filter2_f_29_135)">
<rect width="64.1806" height="31.3598" rx="15.6799" transform="matrix(-0.866025 -0.5 -0.5 0.866025 211.677 149.937)" fill="url(#paint3_linear_29_135)"/>
</g>
<g filter="url(#filter3_f_29_135)">
<path d="M187.384 143.983C187.399 149.062 189.892 154.033 194.488 156.687C198.564 159.04 202.984 159.755 206.997 158.14C207.77 162.15 210.214 165.815 214.029 168.018C221.006 172.046 229.928 169.656 233.956 162.678L240.801 150.823C244.83 143.845 242.439 134.923 235.462 130.895C232.617 129.253 229.45 128.677 226.423 129.044C227.893 122.621 224.595 117.409 219.023 114.192C214.919 111.822 210.142 111.673 206.084 113.373C208.166 107.139 205.317 100.45 199.28 96.9644C193.876 93.8441 187.287 94.6324 182.788 98.4523C183.602 92.7294 180.949 86.8251 175.636 83.7579C168.659 79.7295 159.737 82.1201 155.708 89.0975L144.735 108.104C140.707 115.081 143.097 124.003 150.075 128.031C154.953 130.848 160.782 130.526 165.224 127.694C162.969 134.093 165.513 141.39 171.602 144.906C176.728 147.866 182.92 147.308 187.384 143.983Z" fill="#9C5A53"/>
</g>
<rect width="34.3748" height="50.5038" rx="17.1874" transform="matrix(-0.866025 -0.5 -0.5 0.866025 261.102 133.082)" fill="url(#paint4_radial_29_135)"/>
<rect width="34.3748" height="50.5038" rx="17.1874" transform="matrix(-0.866025 -0.5 -0.5 0.866025 261.102 133.082)" fill="url(#paint5_radial_29_135)"/>
<rect width="34.3748" height="50.5038" rx="17.1874" transform="matrix(-0.866025 -0.5 -0.5 0.866025 261.102 133.082)" fill="url(#paint6_radial_29_135)"/>
<rect width="34.3748" height="50.5038" rx="17.1874" transform="matrix(-0.866025 -0.5 -0.5 0.866025 261.102 133.082)" fill="url(#paint7_radial_29_135)"/>
<path d="M233.115 128.331C239.062 118.029 235.044 109.598 226.824 104.852C218.603 100.106 208.091 102.923 203.345 111.143L191.933 130.91C187.187 139.131 189.697 150.173 197.918 154.919C206.138 159.665 215.549 158.755 221.702 148.097L233.115 128.331Z" fill="url(#paint8_radial_29_135)"/>
<path d="M233.115 128.331C239.062 118.029 235.044 109.598 226.824 104.852C218.603 100.106 208.091 102.923 203.345 111.143L191.933 130.91C187.187 139.131 189.697 150.173 197.918 154.919C206.138 159.665 215.549 158.755 221.702 148.097L233.115 128.331Z" fill="url(#paint9_radial_29_135)"/>
<path d="M233.115 128.331C239.062 118.029 235.044 109.598 226.824 104.852C218.603 100.106 208.091 102.923 203.345 111.143L191.933 130.91C187.187 139.131 189.697 150.173 197.918 154.919C206.138 159.665 215.549 158.755 221.702 148.097L233.115 128.331Z" fill="url(#paint10_radial_29_135)"/>
<path d="M233.115 128.331C239.062 118.029 235.044 109.598 226.824 104.852C218.603 100.106 208.091 102.923 203.345 111.143L191.933 130.91C187.187 139.131 189.697 150.173 197.918 154.919C206.138 159.665 215.549 158.755 221.702 148.097L233.115 128.331Z" fill="url(#paint11_radial_29_135)"/>
<path d="M233.115 128.331C239.062 118.029 235.044 109.598 226.824 104.852C218.603 100.106 208.091 102.923 203.345 111.143L191.933 130.91C187.187 139.131 189.697 150.173 197.918 154.919C206.138 159.665 215.549 158.755 221.702 148.097L233.115 128.331Z" fill="url(#paint12_radial_29_135)"/>
<rect width="34.3748" height="60.2315" rx="17.1874" transform="matrix(-0.866025 -0.5 -0.5 0.866025 190.616 77.5457)" fill="#7DDE5B" fill-opacity="0.55"/>
<rect width="34.3748" height="60.2315" rx="17.1874" transform="matrix(-0.866025 -0.5 -0.5 0.866025 190.616 77.5457)" fill="url(#paint13_radial_29_135)"/>
<rect width="34.3748" height="60.2315" rx="17.1874" transform="matrix(-0.866025 -0.5 -0.5 0.866025 190.616 77.5457)" fill="url(#paint14_radial_29_135)"/>
<rect width="34.3748" height="60.2315" rx="17.1874" transform="matrix(-0.866025 -0.5 -0.5 0.866025 190.616 77.5457)" fill="url(#paint15_radial_29_135)"/>
<rect width="34.3748" height="60.2315" rx="17.1874" transform="matrix(-0.866025 -0.5 -0.5 0.866025 190.616 77.5457)" fill="url(#paint16_radial_29_135)"/>
<path d="M210.241 106.86C214.918 98.7601 211.689 89.1883 203.589 84.5117C195.489 79.8351 185.131 82.6104 180.455 90.7105L164.779 117.861C160.103 125.961 162.878 136.319 170.978 140.995C179.078 145.672 189.436 142.896 194.112 134.796L210.241 106.86Z" fill="url(#paint17_radial_29_135)"/>
<path d="M210.241 106.86C214.918 98.7601 211.689 89.1883 203.589 84.5117C195.489 79.8351 185.131 82.6104 180.455 90.7105L164.779 117.861C160.103 125.961 162.878 136.319 170.978 140.995C179.078 145.672 189.436 142.896 194.112 134.796L210.241 106.86Z" fill="url(#paint18_radial_29_135)"/>
<path d="M210.241 106.86C214.918 98.7601 211.689 89.1883 203.589 84.5117C195.489 79.8351 185.131 82.6104 180.455 90.7105L164.779 117.861C160.103 125.961 162.878 136.319 170.978 140.995C179.078 145.672 189.436 142.896 194.112 134.796L210.241 106.86Z" fill="url(#paint19_radial_29_135)"/>
<path d="M210.241 106.86C214.918 98.7601 211.689 89.1883 203.589 84.5117C195.489 79.8351 185.131 82.6104 180.455 90.7105L164.779 117.861C160.103 125.961 162.878 136.319 170.978 140.995C179.078 145.672 189.436 142.896 194.112 134.796L210.241 106.86Z" fill="url(#paint20_radial_29_135)"/>
<path d="M210.241 106.86C214.918 98.7601 211.689 89.1883 203.589 84.5117C195.489 79.8351 185.131 82.6104 180.455 90.7105L164.779 117.861C160.103 125.961 162.878 136.319 170.978 140.995C179.078 145.672 189.436 142.896 194.112 134.796L210.241 106.86Z" fill="url(#paint21_radial_29_135)"/>
<path d="M184.206 115.922C192.823 120.897 195.995 131.536 191.29 139.684C186.586 147.833 175.787 150.405 167.169 145.43L155.762 138.844C150.641 135.887 144.223 137.416 141.427 142.259L133.838 155.403L132.965 154.899C117.774 146.128 117.574 128.351 124.52 116.32C132.856 101.882 151.991 97.3235 167.26 106.139L184.206 115.922Z" fill="url(#paint22_radial_29_135)"/>
<path d="M184.206 115.922C192.823 120.897 195.995 131.536 191.29 139.684C186.586 147.833 175.787 150.405 167.169 145.43L155.762 138.844C150.641 135.887 144.223 137.416 141.427 142.259L133.838 155.403L132.965 154.899C117.774 146.128 117.574 128.351 124.52 116.32C132.856 101.882 151.991 97.3235 167.26 106.139L184.206 115.922Z" fill="url(#paint23_radial_29_135)"/>
<path d="M184.206 115.922C192.823 120.897 195.995 131.536 191.29 139.684C186.586 147.833 175.787 150.405 167.169 145.43L155.762 138.844C150.641 135.887 144.223 137.416 141.427 142.259L133.838 155.403L132.965 154.899C117.774 146.128 117.574 128.351 124.52 116.32C132.856 101.882 151.991 97.3235 167.26 106.139L184.206 115.922Z" fill="url(#paint24_radial_29_135)"/>
<path d="M184.206 115.922C192.823 120.897 195.995 131.536 191.29 139.684C186.586 147.833 175.787 150.405 167.169 145.43L155.762 138.844C150.641 135.887 144.223 137.416 141.427 142.259L133.838 155.403L132.965 154.899C117.774 146.128 117.574 128.351 124.52 116.32C132.856 101.882 151.991 97.3235 167.26 106.139L184.206 115.922Z" fill="url(#paint25_radial_29_135)"/>
<path d="M184.206 115.922C192.823 120.897 195.995 131.536 191.29 139.684C186.586 147.833 175.787 150.405 167.169 145.43L155.762 138.844C150.641 135.887 144.223 137.416 141.427 142.259L133.838 155.403L132.965 154.899C117.774 146.128 117.574 128.351 124.52 116.32C132.856 101.882 151.991 97.3235 167.26 106.139L184.206 115.922Z" fill="url(#paint26_radial_29_135)"/>
<path d="M184.206 115.922C192.823 120.897 195.995 131.536 191.29 139.684C186.586 147.833 175.787 150.405 167.169 145.43L155.762 138.844C150.641 135.887 144.223 137.416 141.427 142.259L133.838 155.403L132.965 154.899C117.774 146.128 117.574 128.351 124.52 116.32C132.856 101.882 151.991 97.3235 167.26 106.139L184.206 115.922Z" fill="url(#paint27_radial_29_135)"/>
<g filter="url(#filter4_f_29_135)">
<path d="M169.308 123.23L159.924 117.813C146.285 109.17 136.736 110.333 129.086 118.379" stroke="url(#paint28_linear_29_135)" stroke-width="10.125" stroke-linecap="round"/>
</g>
</g>
</g>
<defs>
<filter id="filter0_d_29_135" x="-9" y="-10" width="380" height="380" filterUnits="userSpaceOnUse" color-interpolation-filters="sRGB">
<feFlood flood-opacity="0" result="BackgroundImageFix"/>
<feColorMatrix in="SourceAlpha" type="matrix" values="0 0 0 0 0 0 0 0 0 0 0 0 0 0 0 0 0 0 127 0" result="hardAlpha"/>
<feOffset dy="30"/>
<feGaussianBlur stdDeviation="30"/>
<feColorMatrix type="matrix" values="0 0 0 0 0 0 0 0 0 0 0 0 0 0 0 0 0 0 0.15 0"/>
<feBlend mode="normal" in2="BackgroundImageFix" result="effect1_dropShadow_29_135"/>
<feBlend mode="normal" in="SourceGraphic" in2="effect1_dropShadow_29_135" result="shape"/>
</filter>
<filter id="filter1_i_29_135" x="110.188" y="90.5209" width="139.925" height="131.609" filterUnits="userSpaceOnUse" color-interpolation-filters="sRGB">
<feFlood flood-opacity="0" result="BackgroundImageFix"/>
<feBlend mode="normal" in="SourceGraphic" in2="BackgroundImageFix" result="shape"/>
<feColorMatrix in="SourceAlpha" type="matrix" values="0 0 0 0 0 0 0 0 0 0 0 0 0 0 0 0 0 0 127 0" result="hardAlpha"/>
<feOffset/>
<feGaussianBlur stdDeviation="10.125"/>
<feComposite in2="hardAlpha" operator="arithmetic" k2="-1" k3="1"/>
<feColorMatrix type="matrix" values="0 0 0 0 0.862745 0 0 0 0 0.643137 0 0 0 0 0.572549 0 0 0 1 0"/>
<feBlend mode="normal" in2="shape" result="effect1_innerShadow_29_135"/>
</filter>
<filter id="filter2_f_29_135" x="130.964" y="108.396" width="90.1637" height="78.1505" filterUnits="userSpaceOnUse" color-interpolation-filters="sRGB">
<feFlood flood-opacity="0" result="BackgroundImageFix"/>
<feBlend mode="normal" in="SourceGraphic" in2="BackgroundImageFix" result="shape"/>
<feGaussianBlur stdDeviation="7.59375" result="effect1_foregroundBlur_29_135"/>
</filter>
<filter id="filter3_f_29_135" x="132.653" y="71.676" width="120.23" height="108.424" filterUnits="userSpaceOnUse" color-interpolation-filters="sRGB">
<feFlood flood-opacity="0" result="BackgroundImageFix"/>
<feBlend mode="normal" in="SourceGraphic" in2="BackgroundImageFix" result="shape"/>
<feGaussianBlur stdDeviation="5.0625" result="effect1_foregroundBlur_29_135"/>
</filter>
<filter id="filter4_f_29_135" x="115.418" y="98.1521" width="67.5603" height="38.7479" filterUnits="userSpaceOnUse" color-interpolation-filters="sRGB">
<feFlood flood-opacity="0" result="BackgroundImageFix"/>
<feBlend mode="normal" in="SourceGraphic" in2="BackgroundImageFix" result="shape"/>
<feGaussianBlur stdDeviation="4.30312" result="effect1_foregroundBlur_29_135"/>
</filter>
<linearGradient id="paint0_linear_29_135" x1="169.119" y1="170.384" x2="108.554" y2="135.417" gradientUnits="userSpaceOnUse">
<stop stop-color="#DDA89A"/>
<stop offset="1" stop-color="#F5C1B2"/>
</linearGradient>
<radialGradient id="paint1_radial_29_135" cx="0" cy="0" r="1" gradientUnits="userSpaceOnUse" gradientTransform="translate(173.507 158.136) rotate(120) scale(66.0142 104.428)">
<stop offset="0.657259" stop-color="#B67995" stop-opacity="0"/>
<stop offset="1" stop-color="#B67995"/>
</radialGradient>
<radialGradient id="paint2_radial_29_135" cx="0" cy="0" r="1" gradientUnits="userSpaceOnUse" gradientTransform="translate(172.536 154.621) rotate(45.9259) scale(70.5734 97.1702)">
<stop offset="0.833799" stop-color="#ECB09B" stop-opacity="0"/>
<stop offset="1" stop-color="#ECB09B"/>
</radialGradient>
<linearGradient id="paint3_linear_29_135" x1="51.1978" y1="21.9604" x2="-8.65447" y2="41.9863" gradientUnits="userSpaceOnUse">
<stop stop-color="#AF7068"/>
<stop offset="1" stop-color="#AF7068" stop-opacity="0"/>
</linearGradient>
<radialGradient id="paint4_radial_29_135" cx="0" cy="0" r="1" gradientUnits="userSpaceOnUse" gradientTransform="translate(24.0128 26.833) rotate(-180) scale(19.4004 44.2282)">
<stop stop-color="#F8C7B2"/>
<stop offset="0.582184" stop-color="#E8B69E"/>
<stop offset="1" stop-color="#E2AD92"/>
</radialGradient>
<radialGradient id="paint5_radial_29_135" cx="0" cy="0" r="1" gradientUnits="userSpaceOnUse" gradientTransform="translate(31.2515 25.2519) rotate(-180) scale(8.50265 50.7196)">
<stop offset="0.413043" stop-color="#D1A083"/>
<stop offset="1" stop-color="#D1A083" stop-opacity="0"/>
</radialGradient>
<radialGradient id="paint6_radial_29_135" cx="0" cy="0" r="1" gradientUnits="userSpaceOnUse" gradientTransform="translate(3.60698 1.99068) rotate(53.0969) scale(10.3538 20.213)">
<stop stop-color="#D7AB93"/>
<stop offset="1" stop-color="#D7AB93" stop-opacity="0"/>
</radialGradient>
<radialGradient id="paint7_radial_29_135" cx="0" cy="0" r="1" gradientUnits="userSpaceOnUse" gradientTransform="translate(17.1874 9.75343) rotate(90) scale(40.7503 35.3578)">
<stop offset="0.666613" stop-color="#C38586" stop-opacity="0"/>
<stop offset="1" stop-color="#C38586"/>
</radialGradient>
<radialGradient id="paint8_radial_29_135" cx="0" cy="0" r="1" gradientUnits="userSpaceOnUse" gradientTransform="translate(205.555 128.04) rotate(30) scale(19.4004 50.6285)">
<stop stop-color="#FFD6BA"/>
<stop offset="0.582184" stop-color="#EFBDA3"/>
<stop offset="1" stop-color="#D69F88"/>
</radialGradient>
<radialGradient id="paint9_radial_29_135" cx="0" cy="0" r="1" gradientUnits="userSpaceOnUse" gradientTransform="translate(198.792 122.046) rotate(30) scale(6.68608 45.6551)">
<stop offset="0.131579" stop-color="#D39A76"/>
<stop offset="1" stop-color="#D39A76" stop-opacity="0"/>
</radialGradient>
<radialGradient id="paint10_radial_29_135" cx="0" cy="0" r="1" gradientUnits="userSpaceOnUse" gradientTransform="translate(237.445 113.616) rotate(153.264) scale(11.3348 21.1356)">
<stop stop-color="#D7AB93"/>
<stop offset="1" stop-color="#D7AB93" stop-opacity="0"/>
</radialGradient>
<radialGradient id="paint11_radial_29_135" cx="0" cy="0" r="1" gradientUnits="userSpaceOnUse" gradientTransform="translate(221.241 114.521) rotate(120) scale(46.6473 35.3578)">
<stop offset="0.666613" stop-color="#C38586" stop-opacity="0"/>
<stop offset="1" stop-color="#C38586"/>
</radialGradient>
<radialGradient id="paint12_radial_29_135" cx="0" cy="0" r="1" gradientUnits="userSpaceOnUse" gradientTransform="translate(240.435 109.753) rotate(163.069) scale(14.1778 17.3532)">
<stop stop-color="#D2A68B"/>
<stop offset="1" stop-color="#D2A68B" stop-opacity="0"/>
</radialGradient>
<radialGradient id="paint13_radial_29_135" cx="0" cy="0" r="1" gradientUnits="userSpaceOnUse" gradientTransform="translate(25.7094 27.9891) rotate(-180) scale(22.9888 62.5038)">
<stop stop-color="#FFE8CA"/>
<stop offset="0.582184" stop-color="#F7BB9D"/>
<stop offset="1" stop-color="#DCA486"/>
<stop offset="1" stop-color="#F0A47D"/>
</radialGradient>
<radialGradient id="paint14_radial_29_135" cx="0" cy="0" r="1" gradientUnits="userSpaceOnUse" gradientTransform="translate(38.9469 31.2443) rotate(180) scale(9.59733 68.2767)">
<stop offset="0.131579" stop-color="#E8AC88"/>
<stop offset="1" stop-color="#E8AC88" stop-opacity="0"/>
</radialGradient>
<radialGradient id="paint15_radial_29_135" cx="0" cy="0" r="1" gradientUnits="userSpaceOnUse" gradientTransform="translate(3.60698 2.37411) rotate(57.8043) scale(11.6684 21.3904)">
<stop stop-color="#D7AB93"/>
<stop offset="1" stop-color="#D7AB93" stop-opacity="0"/>
</radialGradient>
<radialGradient id="paint16_radial_29_135" cx="0" cy="0" r="1" gradientUnits="userSpaceOnUse" gradientTransform="translate(2.94891 -2.66859) rotate(48.1004) scale(14.4974 17.6808)">
<stop stop-color="#D2A68B"/>
<stop offset="1" stop-color="#D2A68B" stop-opacity="0"/>
</radialGradient>
<radialGradient id="paint17_radial_29_135" cx="0" cy="0" r="1" gradientUnits="userSpaceOnUse" gradientTransform="translate(180.438 111.159) rotate(30) scale(19.1159 57.117)">
<stop stop-color="#FFE5C7"/>
<stop offset="0.582184" stop-color="#F6C2A7"/>
<stop offset="1" stop-color="#DCA486"/>
</radialGradient>
<radialGradient id="paint18_radial_29_135" cx="0" cy="0" r="1" gradientUnits="userSpaceOnUse" gradientTransform="translate(168.104 103.091) rotate(30) scale(9.45661 73.9331)">
<stop offset="0.131579" stop-color="#E8AC88"/>
<stop offset="1" stop-color="#E8AC88" stop-opacity="0"/>
</radialGradient>
<radialGradient id="paint19_radial_29_135" cx="0" cy="0" r="1" gradientUnits="userSpaceOnUse" gradientTransform="translate(213.892 93.4287) rotate(149.81) scale(12.3228 21.611)">
<stop stop-color="#D7AB93"/>
<stop offset="1" stop-color="#D7AB93" stop-opacity="0"/>
</radialGradient>
<radialGradient id="paint20_radial_29_135" cx="0" cy="0" r="1" gradientUnits="userSpaceOnUse" gradientTransform="translate(197.291 95.4199) rotate(120) scale(52.6257 34.8393)">
<stop offset="0.666613" stop-color="#C38586" stop-opacity="0"/>
<stop offset="1" stop-color="#C38586"/>
</radialGradient>
<radialGradient id="paint21_radial_29_135" cx="0" cy="0" r="1" gradientUnits="userSpaceOnUse" gradientTransform="translate(217.184 89.024) rotate(159.23) scale(15.0844 18.1308)">
<stop stop-color="#D2A68B"/>
<stop offset="1" stop-color="#D2A68B" stop-opacity="0"/>
</radialGradient>
<radialGradient id="paint22_radial_29_135" cx="0" cy="0" r="1" gradientUnits="userSpaceOnUse" gradientTransform="translate(157.387 107.394) rotate(106.541) scale(28.3888 61.6102)">
<stop stop-color="#FFDABA"/>
<stop offset="1" stop-color="#EDB8A9"/>
</radialGradient>
<radialGradient id="paint23_radial_29_135" cx="0" cy="0" r="1" gradientUnits="userSpaceOnUse" gradientTransform="translate(158.022 146.113) rotate(120) scale(14.0322 32.4829)">
<stop offset="0.444526" stop-color="#BD8088"/>
<stop offset="1" stop-color="#BD8088" stop-opacity="0"/>
</radialGradient>
<radialGradient id="paint24_radial_29_135" cx="0" cy="0" r="1" gradientUnits="userSpaceOnUse" gradientTransform="translate(132.635 154.708) rotate(-96.9507) scale(22.6039 36.1739)">
<stop offset="0.385501" stop-color="#EBB7A8"/>
<stop offset="1" stop-color="#EBB7A8" stop-opacity="0"/>
</radialGradient>
<radialGradient id="paint25_radial_29_135" cx="0" cy="0" r="1" gradientUnits="userSpaceOnUse" gradientTransform="translate(193.396 141.511) rotate(-150) scale(18.968 27.4646)">
<stop stop-color="#DCA892"/>
<stop offset="1" stop-color="#DCA892" stop-opacity="0"/>
</radialGradient>
<radialGradient id="paint26_radial_29_135" cx="0" cy="0" r="1" gradientUnits="userSpaceOnUse" gradientTransform="translate(176.185 151.763) rotate(-109.844) scale(19.76 20.471)">
<stop stop-color="#C78C90"/>
<stop offset="1" stop-color="#C78C90" stop-opacity="0"/>
</radialGradient>
<radialGradient id="paint27_radial_29_135" cx="0" cy="0" r="1" gradientUnits="userSpaceOnUse" gradientTransform="translate(182.654 149.307) rotate(-109.193) scale(7.62571 12.7635)">
<stop stop-color="#D89D90"/>
<stop offset="1" stop-color="#D89D90" stop-opacity="0"/>
</radialGradient>
<linearGradient id="paint28_linear_29_135" x1="168.924" y1="123.897" x2="110.03" y2="111.47" gradientUnits="userSpaceOnUse">
<stop stop-color="#FFDDC2"/>
<stop offset="1" stop-color="#FFDDC2" stop-opacity="0"/>
</linearGradient>
<clipPath id="clip0_29_135">
<rect width="176" height="176" fill="white" transform="matrix(-0.866025 -0.5 -0.5 0.866025 301 118)"/>
</clipPath>
</defs>
</svg>
